<?xml version="1.0" encoding="utf-8"?>
<!-- Generator: Adobe Illustrator 27.9.0, SVG Export Plug-In . SVG Version: 6.00 Build 0)  -->
<svg version="1.1" id="Layer_1" xmlns="http://www.w3.org/2000/svg" xmlns:xlink="http://www.w3.org/1999/xlink" x="0px" y="0px"
	 viewBox="0 0 432 432" style="enable-background:new 0 0 432 432;" xml:space="preserve">
<g>
	<path d="M147.4,147.9C195,96.6,240,94.2,282.1,148c0.4,0.6,0.4,1.4-0.1,1.9c-43.3,43.9-88.2,41.2-134.4,0.1
		C146.9,149.4,146.9,148.5,147.4,147.9z"/>
	<path d="M234.9,275.4c-13.4,5.9-26.9,5.9-40.3,0c-0.8-0.3-1.1-1.2-0.7-2l9.6-18.9c0.3-0.6,1-0.9,1.7-0.7c6.3,1.9,12.7,1.9,19,0
		c0.7-0.2,1.4,0.1,1.7,0.7l9.6,18.9C236,274.1,235.7,275,234.9,275.4z"/>
	<path d="M248.9,306.4c-22.4,10.9-45.2,10.2-68.3,0c-0.7-0.3-1.1-1.2-0.7-2l9.3-18.6c0.3-0.7,1.1-1,1.8-0.7
		c16.3,6,32.5,6.7,47.5,0.1c0.7-0.3,1.5,0,1.9,0.7l9.2,18.6C249.9,305.2,249.6,306.1,248.9,306.4z"/>
	<path d="M226,204.6c12.2,29.8,27.3,72.8,39.8,116.2c0.7,2.5,3.7,3.4,5.7,1.8c52.2-42.4,60.5-102.1,25.4-155.8
		c-1.3-2-4.1-2.2-5.7-0.4c-15.9,17.5-37.3,27.9-62.6,33.3C226.4,200.2,225.2,202.6,226,204.6z"/>
	<path d="M206,204.6c-12.2,29.8-27.3,72.8-39.8,116.2c-0.7,2.5-3.7,3.4-5.7,1.8c-52.2-42.4-60.5-102.1-25.4-155.8
		c1.3-2,4.1-2.2,5.7-0.4c15.9,17.5,37.3,27.9,62.6,33.3C205.6,200.2,206.8,202.6,206,204.6z"/>
</g>
</svg>
