<?xml version="1.0" encoding="utf-8"?>
<!-- Generator: Adobe Illustrator 27.9.0, SVG Export Plug-In . SVG Version: 6.00 Build 0)  -->
<svg version="1.1" id="Layer_1" xmlns="http://www.w3.org/2000/svg" xmlns:xlink="http://www.w3.org/1999/xlink" x="0px" y="0px"
	 viewBox="0 0 432 432" style="enable-background:new 0 0 432 432;" xml:space="preserve">
<path d="M310.7,141.6c-0.7-2.1-2.4-3.7-4.6-4.3c-35.3-9.1-68.4,4.4-90.2,35.7c-21.8-31.3-54.8-44.8-90.2-35.7
	c-2.2,0.6-3.9,2.2-4.6,4.3c-15.4,47.7,8.1,75.5,41.5,91.3c-13.7,11.1-16,24.8-13.2,39.8c0.2,0.8,0.7,1.5,1.5,1.9
	c16.1,6.8,34,8.1,45-3.7c-7,27.4-12.1,48.9-9,55.6c4.6,9.9,28.3-46.8,29-56.8c0.7,10,24.3,66.6,29,56.8c3.1-6.7-2-28.2-9-55.6
	c11,11.7,28.8,10.5,45,3.7c0.8-0.3,1.4-1,1.5-1.9c2.9-14.9,0.5-28.7-13.2-39.8C302.6,217.1,326.1,189.3,310.7,141.6z M216,231.1
	c-16.8,0-28.8-10.4-31.6-18.8c25.8,0.4,31.6-24,31.6-24s5.7,24.4,31.6,24C244.8,220.6,232.8,231.1,216,231.1z"/>
</svg>
