<?xml version="1.0" encoding="utf-8"?>
<!-- Generator: Adobe Illustrator 27.9.0, SVG Export Plug-In . SVG Version: 6.00 Build 0)  -->
<svg version="1.1" id="Layer_1" xmlns="http://www.w3.org/2000/svg" xmlns:xlink="http://www.w3.org/1999/xlink" x="0px" y="0px"
	 viewBox="0 0 432 432" style="enable-background:new 0 0 432 432;" xml:space="preserve">
<path d="M119.7,316.3c4.2-58.5,17.9-122.1,52.8-164.5c0.3-0.3,0.7-0.6,1.1-0.7l136-40c1.7-0.5,3.2,1.1,2.7,2.7
	c-12.2,38.8-49.2,67.5-102.4,89.5l68.8-13.7c1.9-0.4,3.3,1.8,2.2,3.4c-18.8,27.4-51.5,40.5-89.2,48.5l53.6-2.8
	c1.9-0.1,3,2.2,1.7,3.6c-20.2,21.8-47.2,28.5-83.6,29.3l-35.8,47.7C124.9,322.7,119.4,320.6,119.7,316.3z"/>
</svg>
