<?xml version="1.0" encoding="utf-8"?>
<!-- Generator: Adobe Illustrator 27.9.0, SVG Export Plug-In . SVG Version: 6.00 Build 0)  -->
<svg version="1.1" id="Layer_1" xmlns="http://www.w3.org/2000/svg" xmlns:xlink="http://www.w3.org/1999/xlink" x="0px" y="0px"
	 viewBox="0 0 432 432" style="enable-background:new 0 0 432 432;" xml:space="preserve">
<g>
	<path d="M320.8,128.9c-40.6,51.2-74.4,117.3-104,192.7c-0.4,0.9,0.3,2,1.3,2h71.5c0.6,0,1.2-0.4,1.4-1.1
		c13.6-49.2,23.8-116.3,32.3-192.5C323.5,128.6,321.7,127.8,320.8,128.9z"/>
	<path d="M197.6,298.7c40.8-54.7,60.3-127.1,58.3-217.4c0-1.3-1.7-1.9-2.6-0.9c-15,17.6-30.8,50.7-47.3,96.7c0,0.1,0,0.1,0,0.2
		c-11.4,48.3-14,87.4-11,120.7C195.1,299.3,196.8,299.8,197.6,298.7z"/>
	<path d="M86.8,325.5h76.3c0.7,0,1.3-0.5,1.4-1.2c12.2-70.6,17.3-136,13.4-194.8c-0.1-1.4-1.9-1.9-2.7-0.7
		c-34.9,56.4-64.5,121.9-89.9,194.7C85.2,324.5,85.9,325.5,86.8,325.5z"/>
</g>
</svg>
