<?xml version="1.0" encoding="utf-8"?>
<!-- Generator: Adobe Illustrator 27.9.0, SVG Export Plug-In . SVG Version: 6.00 Build 0)  -->
<svg version="1.1" id="Layer_1" xmlns="http://www.w3.org/2000/svg" xmlns:xlink="http://www.w3.org/1999/xlink" x="0px" y="0px"
	 viewBox="0 0 432 432" style="enable-background:new 0 0 432 432;" xml:space="preserve">
<g>
	<path d="M313.5,268.8l-0.8-0.5l-0.8,0.5c-0.4,0.2-0.7,0.4-1,0.5l-86.5,33.6c-2.3,0.9-4.8,1.4-7.3,1.4c-2.4,0-4.9-0.4-7.1-1.3
		l-88.9-33.7c-0.3-0.1-0.7-0.3-1-0.5l-0.8-0.5l-0.8,0.5c-2.7,1.7-4.3,4.8-3.9,8.1c0.3,3.3,2.4,6,5.5,7.1l88.9,33.7
		c2.6,1,5.4,1.5,8.2,1.5l0,0c2.9,0,5.7-0.5,8.3-1.6L312,284c3.1-1.2,5.1-3.9,5.4-7.2C317.7,273.6,316.2,270.5,313.5,268.8z"/>
	<path d="M120.6,249.8l88.9,33.7c5,1.9,10.5,1.9,15.5-0.1l86.5-33.6c6-2.3,6.1-10.8,0.1-13.2l-86.3-35.1c-5.2-2.1-10.9-2.1-16.1-0.1
		l-88.7,35.1C114.5,238.9,114.6,247.5,120.6,249.8z"/>
	<path d="M167.4,151.9h-36.2c-0.8,0-1.4-0.6-1.4-1.4v-36.2c0-0.8,0.6-1.4,1.4-1.4h36.2c0.8,0,1.4,0.6,1.4,1.4v36.2
		C168.8,151.3,168.2,151.9,167.4,151.9z"/>
	<path d="M293,169.7h-30.3c-0.8,0-1.4-0.6-1.4-1.4V138c0-0.8,0.6-1.4,1.4-1.4H293c0.8,0,1.4,0.6,1.4,1.4v30.3
		C294.5,169,293.8,169.7,293,169.7z"/>
	<path d="M203.6,185.1H178c-0.8,0-1.4-0.6-1.4-1.4v-25.6c0-0.8,0.6-1.4,1.4-1.4h25.6c0.8,0,1.4,0.6,1.4,1.4v25.6
		C205,184.4,204.4,185.1,203.6,185.1z"/>
</g>
</svg>
