<?xml version="1.0" encoding="utf-8"?>
<!-- Generator: Adobe Illustrator 27.9.0, SVG Export Plug-In . SVG Version: 6.00 Build 0)  -->
<svg version="1.1" id="Layer_1" xmlns="http://www.w3.org/2000/svg" xmlns:xlink="http://www.w3.org/1999/xlink" x="0px" y="0px"
	 viewBox="0 0 432 432" style="enable-background:new 0 0 432 432;" xml:space="preserve">
<path d="M313.1,181.9v-36.2c0-0.8-0.6-1.4-1.4-1.4h-36.2c-0.8,0-1.4,0.6-1.4,1.4V178l-53.8-31.1l22.3-22.3c0.6-0.6,0.6-1.5,0-2
	L217,97c-0.6-0.6-1.5-0.6-2,0l-25.6,25.6c-0.6,0.6-0.6,1.5,0,2l22.3,22.3l-53.6,30.9v-32.1c0-0.8-0.6-1.4-1.4-1.4h-36.2
	c-0.8,0-1.4,0.6-1.4,1.4v36.2c0,0.8,0.6,1.4,1.4,1.4h33.6v65.9c0,0.1,0,0.2,0,0.4h-33.7c-0.8,0-1.4,0.6-1.4,1.4v36.2
	c0,0.8,0.6,1.4,1.4,1.4h36.2c0.8,0,1.4-0.6,1.4-1.4V254l53.7,31l-22.4,22.4c-0.6,0.6-0.6,1.5,0,2l25.6,25.6c0.6,0.6,1.5,0.6,2,0
	l25.6-25.6c0.6-0.6,0.6-1.5,0-2L220.1,285l53.9-31.1v33.3c0,0.8,0.6,1.4,1.4,1.4h36.2c0.8,0,1.4-0.6,1.4-1.4V251
	c0-0.8-0.6-1.4-1.4-1.4h-33.9c0-0.1,0-0.2,0-0.4v-65.9h33.9C312.5,183.4,313.1,182.7,313.1,181.9z M215.9,181.6l-30.3,19.5
	c-0.4,0.3-0.7,0.7-0.7,1.2v31.9c0,0.8-0.6,1.4-1.4,1.4h-12.9c-0.8,0-1.4-0.6-1.4-1.4v-40.6l-0.3-0.5l38.5-24.8
	c0.7-0.4,1.6-0.2,2,0.4l7,10.8C216.7,180.2,216.5,181.1,215.9,181.6z"/>
</svg>
