<?xml version="1.0" encoding="utf-8"?>
<!-- Generator: Adobe Illustrator 27.9.0, SVG Export Plug-In . SVG Version: 6.00 Build 0)  -->
<svg version="1.1" id="Layer_1" xmlns="http://www.w3.org/2000/svg" xmlns:xlink="http://www.w3.org/1999/xlink" x="0px" y="0px"
	 viewBox="0 0 432 432" style="enable-background:new 0 0 432 432;" xml:space="preserve">
<g>
	<path d="M320.6,169.7l-58.3-58.3c-1.4-1.4-3.2-2.1-5.1-2.1h-82.4c-1.9,0-3.7,0.8-5.1,2.1l-58.3,58.3c-1.4,1.4-2.1,3.2-2.1,5.1v82.4
		c0,1.9,0.8,3.7,2.1,5.1l58.3,58.3c1.4,1.4,3.2,2.1,5.1,2.1h82.4c1.9,0,3.7-0.8,5.1-2.1l58.3-58.3c1.4-1.4,2.1-3.2,2.1-5.1v-82.4
		C322.7,172.9,321.9,171.1,320.6,169.7z M252.1,129.5c29.8,0.5,46.4,15.4,47.8,46.8c0.1,1.3-1.5,2-2.5,1.1L251,132
		C250.2,131,250.8,129.5,252.1,129.5z M202.7,305.7c-53.2-1.6-78.1-29.4-78.3-80c0-1.3,1.6-1.9,2.5-1l76.9,78.5
		C204.7,304.2,204,305.7,202.7,305.7z M229.3,305.7c-1.3,0-2-1.5-1.1-2.5l76.9-78.5c0.9-0.9,2.5-0.3,2.5,1
		C307.4,276.3,282.5,304.1,229.3,305.7z"/>
</g>
</svg>
