<?xml version="1.0" encoding="utf-8"?>
<!-- Generator: Adobe Illustrator 27.9.0, SVG Export Plug-In . SVG Version: 6.00 Build 0)  -->
<svg version="1.1" id="Layer_1" xmlns="http://www.w3.org/2000/svg" xmlns:xlink="http://www.w3.org/1999/xlink" x="0px" y="0px"
	 viewBox="0 0 432 432" style="enable-background:new 0 0 432 432;" xml:space="preserve">
<g>
	<path d="M219.6,242.5c-0.6-1.9-2.6-3-4.5-2.4l-86.5,25.6c-1.2,0.3-1.4,1.9-0.4,2.6l85.6,59.8c0.5,0.4,1.2,0.3,1.7,0l23.4-17.4
		c0.5-0.4,0.7-1,0.5-1.6L219.6,242.5z"/>
	<path d="M211.1,213.9l-13.6-45.7c-0.2-0.8,0.2-1.6,1-1.8l18-5.3h0.1l69.6-27.3c0.7-0.3,1.1-1,0.9-1.7L285,125c-0.2-0.6-0.7-1-1.4-1
		H154.1c-0.6,0-1.2,0.4-1.4,1l-41.9,120.2c-0.4,1.1,0.6,2.2,1.8,1.9l96-28.5C210.5,217.8,211.6,215.8,211.1,213.9z M179.3,157.3
		c-0.1,0.1-0.2,0.2-0.3,0.3c-12.7,9.5-27-4.8-17.5-17.5c0.1-0.1,0.2-0.2,0.3-0.3C174.5,130.3,188.7,144.5,179.3,157.3z"/>
	<path d="M321.2,248.1l-27-91.6c-0.2-0.8-1.1-1.2-1.9-0.9l-64,25.1c-1.7,0.7-2.7,2.6-2.1,4.4l32.2,108.6c0.3,1,1.4,1.3,2.2,0.7
		l60.1-44.7C321.2,249.3,321.4,248.7,321.2,248.1z M278.9,212.5c-0.1,0.1-0.2,0.2-0.3,0.3c-17.7,13.3-37.6-6.6-24.4-24.4
		c0.1-0.1,0.2-0.2,0.3-0.3C272.3,174.8,292.2,194.7,278.9,212.5z"/>
</g>
</svg>
