<?xml version="1.0" encoding="utf-8"?>
<!-- Generator: Adobe Illustrator 27.9.0, SVG Export Plug-In . SVG Version: 6.00 Build 0)  -->
<svg version="1.1" id="Layer_1" xmlns="http://www.w3.org/2000/svg" xmlns:xlink="http://www.w3.org/1999/xlink" x="0px" y="0px"
	 viewBox="0 0 432 432" style="enable-background:new 0 0 432 432;" xml:space="preserve">
<style type="text/css">
	.st0{fill:#50413E;}
	.st1{fill:#FFFFFF;}
</style>
<circle class="st0" cx="216" cy="216" r="216"/>
<g>
	<path class="st1" d="M298.8,159.7c-0.6-0.6-1.5-0.6-2.1,0c-11.7,12.2-26.8,21.7-44,27.3c6.1,10.1,9.7,22.7,9.7,36.5
		c0,32.9-20.8,59.6-46.4,59.6s-46.4-26.7-46.4-59.6c0-13.7,3.6-26.4,9.7-36.5c-17.2-5.6-32.3-15.1-44-27.3c-0.6-0.6-1.5-0.6-2.1,0
		c-14.5,16.1-23.2,36.6-23.2,58.9c0,52,47.5,94.2,106.1,94.2s106.1-42.2,106.1-94.2C322,196.3,313.3,175.9,298.8,159.7z"/>
	<path class="st1" d="M216,192.4c-4.1,0-8.2-0.2-12.1-0.5c-0.6,0-1.1,0.2-1.4,0.8c-3.5,6.8-5.6,16.1-5.6,26.4
		c0,20.6,8.6,37.3,19.1,37.3s19.1-16.7,19.1-37.3c0-10.3-2.1-19.7-5.6-26.4c-0.3-0.5-0.8-0.8-1.4-0.8
		C224.1,192.2,220.1,192.4,216,192.4z"/>
</g>
</svg>
