<?xml version="1.0" encoding="utf-8"?>
<!-- Generator: Adobe Illustrator 27.9.0, SVG Export Plug-In . SVG Version: 6.00 Build 0)  -->
<svg version="1.1" id="Layer_1" xmlns="http://www.w3.org/2000/svg" xmlns:xlink="http://www.w3.org/1999/xlink" x="0px" y="0px"
	 viewBox="0 0 432 432" style="enable-background:new 0 0 432 432;" xml:space="preserve">
<style type="text/css">
	.st0{fill:#5160E1;}
	.st1{fill:#FFFFFF;}
</style>
<circle class="st0" cx="216" cy="216" r="216"/>
<g>
	<path class="st1" d="M260.7,162.3c-1.6-24.9-7.6-46.9-17.4-66.6c-0.6-1.2-2.4-1-2.7,0.3c-4.2,19.1-8.8,35.5-14,48.8
		c-3.5-0.6-7-0.9-10.6-0.9s-7.2,0.3-10.6,0.9c-5.2-13.3-9.8-29.7-14-48.8c-0.3-1.3-2.1-1.5-2.7-0.3c-9.8,19.7-15.8,41.7-17.4,66.6
		c-13.1,12.8-21.4,31.1-21.4,51.4c0,25.4,12.9,47.7,32.1,59.9v29.6c0,18.7,15.3,33.9,33.9,33.9c18.7,0,33.9-15.3,33.9-33.9v-29.6
		c19.3-12.2,32.1-34.4,32.1-59.9C282.1,193.4,273.9,175.1,260.7,162.3z M194.2,254.6c-7.9-1.6-20.2-7.7-22.3-10.7
		c-6.6-7.1-10.5-22.7-8.9-40.6c0.7-8.1,3.6-4,5-1.5c10.6,19.6,20.5,36.4,28.9,48.4C198.4,252.3,196.6,255.1,194.2,254.6z
		 M260.2,243.9c-2.1,3-14.4,9.1-22.3,10.7c-2.4,0.5-4.1-2.3-2.7-4.4c8.4-12,18.3-28.8,28.9-48.4c1.4-2.5,4.3-6.6,5,1.5
		C270.7,221.2,266.7,236.8,260.2,243.9z"/>
	<g>
		<path class="st1" d="M278,261.9c2.6,3.7,12.9,18.6,18.6,31c0.4,0.8,1.4,1.1,2.2,0.5c47.5-35.6,41.3-91.2,17-128.4
			c-0.8-1.2-2.6-0.6-2.6,0.8c0.2,21.6-4.5,42.3-21.7,56.3c-0.3,0.2-0.5,0.6-0.5,0.9c-2.2,19.1-7,29.9-12.9,37.1
			C277.6,260.7,277.6,261.4,278,261.9z"/>
		<path class="st1" d="M154.1,261.9c-2.6,3.7-12.9,18.6-18.6,31c-0.4,0.8-1.4,1.1-2.2,0.5c-47.5-35.6-41.3-91.2-17-128.4
			c0.8-1.2,2.6-0.6,2.6,0.8c-0.2,21.6,4.5,42.3,21.7,56.3c0.3,0.2,0.5,0.6,0.5,0.9c2.2,19.1,7,29.9,12.9,37.1
			C154.4,260.7,154.5,261.4,154.1,261.9z"/>
	</g>
</g>
</svg>
