<?xml version="1.0" encoding="utf-8"?>
<!-- Generator: Adobe Illustrator 27.9.0, SVG Export Plug-In . SVG Version: 6.00 Build 0)  -->
<svg version="1.1" id="Layer_1" xmlns="http://www.w3.org/2000/svg" xmlns:xlink="http://www.w3.org/1999/xlink" x="0px" y="0px"
	 viewBox="0 0 432 432" style="enable-background:new 0 0 432 432;" xml:space="preserve">
<style type="text/css">
	.st0{fill:#FABF00;}
	.st1{fill:#FFFFFF;}
</style>
<circle class="st0" cx="216" cy="216" r="216"/>
<path class="st1" d="M211.1,105.7c-23.7,31.1-45.7,67.1-66.5,106.7c-0.5,0.9-0.2,2.1,0.6,2.7c22,17.5,43.9,33.7,65.6,47.8
	c0.8,0.5,1.2,1.6,0.9,2.5l-19.5,58.9c-0.7,2.1,1.9,3.8,3.5,2.3l81.9-76.3c0.9-0.8,0.9-2.3,0-3.1c-12.9-12.6-25.5-23.5-37.5-32.2
	c-1-0.7-1.2-2.1-0.5-3.1l47.4-62c0.8-1,0.5-2.5-0.6-3.2l-72.7-41.4C212.9,104.6,211.7,104.9,211.1,105.7z"/>
</svg>
