<?xml version="1.0" encoding="utf-8"?>
<!-- Generator: Adobe Illustrator 27.9.0, SVG Export Plug-In . SVG Version: 6.00 Build 0)  -->
<svg version="1.1" id="Layer_1" xmlns="http://www.w3.org/2000/svg" xmlns:xlink="http://www.w3.org/1999/xlink" x="0px" y="0px"
	 viewBox="0 0 451.2 432" style="enable-background:new 0 0 451.2 432;" xml:space="preserve">
<style type="text/css">
	.st0{fill:#FF7F00;}
	.st1{fill:#FFFFFF;}
</style>
<circle class="st0" cx="235.2" cy="216" r="216"/>
<g>
	<path class="st1" d="M167.7,213.1h-22.9c-4,0-7.2-3.2-7.2-7.2v-94.5c0-2,1.6-3.6,3.6-3.6h30.1c2,0,3.6,1.6,3.6,3.6v94.5
		C174.9,209.9,171.7,213.1,167.7,213.1z"/>
	<path class="st1" d="M220.3,213.1h-22.9c-4,0-7.2-3.2-7.2-7.2v-94.5c0-2,1.6-3.6,3.6-3.6h30.1c2,0,3.6,1.6,3.6,3.6v94.5
		C227.5,209.9,224.3,213.1,220.3,213.1z"/>
	<path class="st1" d="M242.8,224v-26c0-2,1.6-3.6,3.6-3.6h82.8c2,0,3.6,1.6,3.6,3.6v36.8c0,2-1.6,3.6-3.6,3.6h-72
		C249.2,238.4,242.8,232,242.8,224z"/>
	<path class="st1" d="M276.5,179.8h-30.1c-2,0-3.6-1.6-3.6-3.6v-64.8c0-2,1.6-3.6,3.6-3.6h30.1c2,0,3.6,1.6,3.6,3.6v64.8
		C280.1,178.2,278.5,179.8,276.5,179.8z"/>
	<path class="st1" d="M329.1,179.8H299c-2,0-3.6-1.6-3.6-3.6v-64.8c0-2,1.6-3.6,3.6-3.6h30.1c2,0,3.6,1.6,3.6,3.6v64.8
		C332.7,178.2,331.1,179.8,329.1,179.8z"/>
	<path class="st1" d="M247.1,252.8c-10.3,0-18.7-8.4-18.7-18.7l0,0c0-1.8-1.5-3.2-3.2-3.2h-83.9c-2,0-3.6,1.6-3.6,3.6v43.1
		c0,1.1,0.5,2.1,1.4,2.8l44.9,35.9c9.9,7.9,23.2,10,35.1,5.6l111.4-41.7c1.4-0.5,2.3-1.9,2.3-3.4v-20.7c0-1.8-1.5-3.2-3.2-3.2h-82.5
		V252.8z"/>
</g>
</svg>
