<?xml version="1.0" encoding="utf-8"?>
<!-- Generator: Adobe Illustrator 27.9.0, SVG Export Plug-In . SVG Version: 6.00 Build 0)  -->
<svg version="1.1" id="Layer_1" xmlns="http://www.w3.org/2000/svg" xmlns:xlink="http://www.w3.org/1999/xlink" x="0px" y="0px"
	 viewBox="0 0 432 432" style="enable-background:new 0 0 432 432;" xml:space="preserve">
<style type="text/css">
	.st0{fill:#E62828;}
	.st1{fill:#FFFFFF;}
</style>
<circle class="st0" cx="216" cy="216" r="216"/>
<path class="st1" d="M176.7,316.8c-24.3-14-38.1-29.1-41.7-70.6c0-0.1,0-0.2,0-0.3c3.7-28.3-0.4-32.8,49.3-79.1l0.1-0.1
	c15.4-11.2,24.8-37.3,4.5-57.5c-0.9-0.9-0.3-2.4,0.9-2.5c19.5-1.4,39.3,2.4,51.3,23.9c0.1,0.1,0.1,0.2,0.1,0.4
	c4.5,16.2-0.1,27.4-6.2,43.6c-8.8,25.8-6.3,36.3,2.5,41.4c1.2,0.7,2.5-0.4,2.1-1.7c-9-27.7,4.4-37.4,27.6-40.3
	c1.3-0.2,2.2,1.4,1.2,2.4c-10.3,10.9-1.3,32.5,19.7,54.8c0.1,0.1,0.2,0.2,0.2,0.3c30.7,56.2-27.4,96.8-75.8,94
	c-1.5-0.1-1.9-2-0.6-2.7c16.5-8.9,44.1-32.1,19.2-52.8c-0.1-0.1-0.1-0.1-0.2-0.1c-23-13.7-40.9-33-42.7-64.8
	c-0.1-1.3-1.8-1.9-2.6-0.8c-28.2,36.5-26.6,75.2-7.1,110.8C179.4,316.2,178,317.6,176.7,316.8z"/>
</svg>
