<?xml version="1.0" encoding="utf-8"?>
<!-- Generator: Adobe Illustrator 27.9.0, SVG Export Plug-In . SVG Version: 6.00 Build 0)  -->
<svg version="1.1" id="Layer_1" xmlns="http://www.w3.org/2000/svg" xmlns:xlink="http://www.w3.org/1999/xlink" x="0px" y="0px"
	 viewBox="0 0 432 432" style="enable-background:new 0 0 432 432;" xml:space="preserve">
<style type="text/css">
	.st0{fill:#704070;}
	.st1{fill:#FFFFFF;}
</style>
<circle class="st0" cx="216" cy="216" r="216"/>
<path class="st1" d="M320.8,213.5c-9.7-5.8-19-1.2-27.9,5.7c2.2-8.1,3.5-15.8,3.5-22.7c0-44.4-36-80.4-80.4-80.4s-80.4,36-80.4,80.4
	c0,6.9,1.2,14.6,3.4,22.7c-8.9-6.9-18.2-11.4-27.8-5.6c-13.6,9.2-20.6,26-16.8,41.3c0.7,2.7,4,3.6,6,1.6c3.8-3.7,6.7-6.3,11.6-8
	c8.6-1.8,4.7,18.9,19.8,26.2c13.1,1.1,21.2-6.8,25.3-13.8c17.4,29.9,41.7,55.1,58.9,55.1c16.8,0,41.2-25.4,58.8-55.4
	c4,7.1,12.2,15.2,25.5,14c15.1-7.3,11.2-28,19.8-26.2c4.9,1.7,7.8,4.3,11.6,8c2,1.9,5.3,1,6-1.6
	C341.4,239.5,334.4,222.7,320.8,213.5z M193,204.2c-7.3,2.8-17.2-5.3-22.1-18c-4.8-12.7-2.8-25.3,4.5-28.1s17.2,5.3,22.1,18
	C202.4,188.8,200.4,201.4,193,204.2z M261.1,186.2c-4.8,12.7-14.7,20.8-22.1,18c-7.3-2.8-9.4-15.4-4.5-28.1s14.7-20.8,22.1-18
	C263.9,160.9,265.9,173.5,261.1,186.2z"/>
</svg>
