<?xml version="1.0" encoding="utf-8"?>
<!-- Generator: Adobe Illustrator 27.9.0, SVG Export Plug-In . SVG Version: 6.00 Build 0)  -->
<svg version="1.1" id="Layer_1" xmlns="http://www.w3.org/2000/svg" xmlns:xlink="http://www.w3.org/1999/xlink" x="0px" y="0px"
	 viewBox="0 0 432 432" style="enable-background:new 0 0 432 432;" xml:space="preserve">
<style type="text/css">
	.st0{fill:#9FA19E;}
	.st1{fill:#FFFFFF;}
</style>
<circle class="st0" cx="216" cy="216" r="216"/>
<path class="st1" d="M322.4,167.9c5.5-6.8,8.8-15.4,8.8-24.8c0-21.8-17.6-39.4-39.4-39.4c-10.3,0-19.7,4-26.7,10.5
	c-15-6.7-31.6-10.5-49.1-10.5s-34.1,3.7-49.1,10.5c-7-6.5-16.4-10.5-26.7-10.5c-21.8,0-39.4,17.6-39.4,39.4c0,9.4,3.3,18,8.8,24.8
	c-8.8,16.7-13.8,35.8-13.8,56.1c0,66.4,53.9,120.3,120.3,120.3S336.4,290.4,336.4,224C336.3,203.7,331.3,184.6,322.4,167.9z
	 M216,306.3c-45.5,0-82.4-36.9-82.4-82.4s36.9-82.4,82.4-82.4s82.4,36.9,82.4,82.4S261.5,306.3,216,306.3z"/>
</svg>
