<?xml version="1.0" encoding="utf-8"?>
<!-- Generator: Adobe Illustrator 27.9.0, SVG Export Plug-In . SVG Version: 6.00 Build 0)  -->
<svg version="1.1" id="Layer_1" xmlns="http://www.w3.org/2000/svg" xmlns:xlink="http://www.w3.org/1999/xlink" x="0px" y="0px"
	 viewBox="0 0 432 432" style="enable-background:new 0 0 432 432;" xml:space="preserve">
<style type="text/css">
	.st0{fill:#EE4179;}
	.st1{fill:#FFFFFF;}
</style>
<circle class="st0" cx="216" cy="216" r="216"/>
<path class="st1" d="M311.1,255.4c-15.1-26.5-15.1-52.3,0-78.8c2.6-4.6,2.7-10.1,0.3-14.8c-2.4-4.7-7-7.8-12.2-8.4
	c-32.2-3.5-55.1-16.5-70.1-40c-2.7-4.3-7.3-6.8-12-7.1c-0.1,0-0.2,0-0.4,0c-0.3,0-0.6,0-0.9,0s-0.6,0-0.9,0c-0.1,0-0.2,0-0.4,0
	c-4.7,0.4-9.2,2.8-12,7.1c-15,23.4-37.9,36.5-70.1,40c-5.2,0.6-9.8,3.7-12.2,8.4c-2.4,4.7-2.3,10.2,0.3,14.8
	c15.1,26.5,15.1,52.3,0,78.8c-2.6,4.7-2.7,10.3-0.2,15.1c2.5,4.7,7.3,7.8,12.6,8.2c28,2,51,15.4,70.2,40.9c2.6,3.4,6.2,5.4,10.1,6
	c0,0,0,0,0.1,0c0.3,0,0.6,0.1,1,0.1c0.3,0,0.7,0,1,0.1c0.1,0,0.2,0,0.3,0c0,0,0,0,0.1,0c0,0,0,0,0.1,0s0.2,0,0.3,0
	c0.3,0,0.7,0,1-0.1c0.3,0,0.7-0.1,1-0.1c0,0,0,0,0.1,0c3.9-0.6,7.6-2.6,10.1-6c19.2-25.6,42.2-38.9,70.2-40.9
	c5.3-0.4,10.1-3.5,12.6-8.2C313.9,265.7,313.8,260,311.1,255.4z M274.9,251c-22.1,5.6-41.8,17.4-58.9,35.2
	c-17.1-17.8-36.8-29.6-58.9-35.2c8.4-23.4,8.4-46.9-0.1-70.2c23.9-5.9,43.6-17.1,59-33.7c15.4,16.5,35.1,27.8,59,33.7
	C266.4,204.1,266.4,227.6,274.9,251z"/>
</svg>
