<?xml version="1.0" encoding="utf-8"?>
<!-- Generator: Adobe Illustrator 27.9.0, SVG Export Plug-In . SVG Version: 6.00 Build 0)  -->
<svg version="1.1" id="Layer_1" xmlns="http://www.w3.org/2000/svg" xmlns:xlink="http://www.w3.org/1999/xlink" x="0px" y="0px"
	 viewBox="0 0 432 432" style="enable-background:new 0 0 432 432;" xml:space="preserve">
<style type="text/css">
	.st0{fill:#2981EF;}
	.st1{fill:#FFFFFF;}
</style>
<circle class="st0" cx="216" cy="216" r="216"/>
<path class="st1" d="M281.2,231.8c0-0.1-0.1-0.2-0.2-0.3C251.4,179.8,235,140,219.4,96c-1.1-3.2-5.6-3.2-6.8,0
	c-15.6,44-32,83.8-61.6,135.5c-0.1,0.1-0.1,0.2-0.2,0.3c-30.9,67.5,28.9,107.4,65.2,106.5C252.2,339.3,312.1,299.3,281.2,231.8z
	 M270.9,284.9c-10.4,17.7-28.8,33.5-55.3,35.1c0.3,0-0.3,0,0,0c-22.3-0.7-42.2-13.5-53.6-34c-1.9-3.5,1.5-7.5,5.3-6.1
	c31.4,11.8,68.3,10.6,98.2-1.2C269.4,277.2,273,281.3,270.9,284.9z"/>
</svg>
