<?xml version="1.0" encoding="utf-8"?>
<!-- Generator: Adobe Illustrator 27.9.0, SVG Export Plug-In . SVG Version: 6.00 Build 0)  -->
<svg version="1.1" id="Layer_1" xmlns="http://www.w3.org/2000/svg" xmlns:xlink="http://www.w3.org/1999/xlink" x="0px" y="0px"
	 viewBox="0 0 1920 1080" style="enable-background:new 0 0 1920 1080;" xml:space="preserve">
<style type="text/css">
	.st0{fill:#FFFFFF;}
	.st1{fill-rule:evenodd;clip-rule:evenodd;fill:#FFFFFF;}
	.st2{fill:url(#SVGID_1_);}
	.st3{fill:url(#SVGID_00000003069852260476052070000005261499443829938324_);}
	.st4{fill:url(#SVGID_00000038377397038861662790000014447546835296739506_);}
	.st5{fill:url(#SVGID_00000158729139637031870870000012861410147549258427_);}
	.st6{fill:url(#SVGID_00000128480410315380060020000006613351908260152470_);}
	.st7{fill:url(#SVGID_00000158025607856403278570000014850334305532959676_);}
	.st8{fill:url(#SVGID_00000132057077712889153440000004708187303741438087_);}
	.st9{fill:url(#SVGID_00000003093880765796381720000000385144898169090737_);}
	.st10{fill:url(#SVGID_00000036218239242546979650000002777632760992396704_);}
	.st11{fill:url(#SVGID_00000118391023695314388680000005336626954739002773_);}
	.st12{fill:url(#SVGID_00000106131731429350374050000011947344470465725574_);}
	.st13{fill:url(#SVGID_00000130614791012146395810000005900127704539268781_);}
	.st14{fill:url(#SVGID_00000078756587573983465330000005939478870502733997_);}
	.st15{fill:url(#SVGID_00000081614279015314633410000006323967702119095456_);}
</style>
<g>
	<path class="st0" d="M1317.4,412.6c-29.2,29.2-76.8,29.2-106.1,0c-29.2-29.2-29.2-76.8,0-106.1c29.2-29.2,76.8-29.2,106.1,0
		C1346.7,335.7,1346.7,383.4,1317.4,412.6z M1222,317.2c-23.4,23.4-23.4,61.5,0,84.9s61.5,23.4,84.9,0s23.4-61.5,0-84.9
		C1283.4,293.8,1245.4,293.8,1222,317.2z"/>
	<path class="st0" d="M1285.6,380.8c-9.9,9.9-25,11.4-36.5,4.6l-27.2,27.2c-2.9,2.9-7.7,2.9-10.6,0s-2.9-7.7,0-10.6l27.2-27.2
		c-6.8-11.5-5.2-26.6,4.6-36.5c9.9-9.9,25-11.4,36.4-4.6l27.2-27.2c2.9-2.9,7.7-2.9,10.6,0s2.9,7.7,0,10.6l-27,27.2
		C1297,355.8,1295.5,370.9,1285.6,380.8z M1253.8,349c-5.8,5.8-5.8,15.4,0,21.2c5.8,5.8,15.4,5.9,21.2,0c5.8-5.8,5.8-15.4,0-21.2
		C1269.2,343.1,1259.7,343.1,1253.8,349z"/>
</g>
<g>
	<path class="st0" d="M1317.4,412.6c-29.2,29.2-76.8,29.2-106.1,0c-29.2-29.2-29.2-76.8,0-106.1c29.2-29.2,76.8-29.2,106.1,0
		C1346.7,335.7,1346.7,383.4,1317.4,412.6z M1222,317.2c-23.4,23.4-23.4,61.5,0,84.9s61.5,23.4,84.9,0s23.4-61.5,0-84.9
		C1283.4,293.8,1245.4,293.8,1222,317.2z"/>
	<path class="st0" d="M1285.6,380.8c-9.9,9.9-25,11.4-36.5,4.6l-27.2,27.2c-2.9,2.9-7.7,2.9-10.6,0s-2.9-7.7,0-10.6l27.2-27.2
		c-6.8-11.5-5.2-26.6,4.6-36.5c9.9-9.9,25-11.4,36.4-4.6l27.2-27.2c2.9-2.9,7.7-2.9,10.6,0s2.9,7.7,0,10.6l-27,27.2
		C1297,355.8,1295.5,370.9,1285.6,380.8z M1253.8,349c-5.8,5.8-5.8,15.4,0,21.2c5.8,5.8,15.4,5.9,21.2,0c5.8-5.8,5.8-15.4,0-21.2
		C1269.2,343.1,1259.7,343.1,1253.8,349z"/>
</g>
<g>
	<path class="st0" d="M740.4,775l-35.9,35.9c12.9,19.5,10.8,46-6.4,63.2c-17.2,17.2-43.7,19.3-63.2,6.4L599,916.4
		c39.5,32.3,97.8,30.1,134.7-6.8C770.5,872.8,772.7,814.5,740.4,775z"/>
	<path class="st0" d="M726.2,760.8c-39.5-32.3-97.8-30.1-134.7,6.8c-36.9,36.9-39.1,95.2-6.8,134.7l35.9-35.9
		c-12.9-19.5-10.8-46,6.4-63.2s43.7-19.3,63.2-6.4L726.2,760.8z"/>
	
		<ellipse transform="matrix(9.968687e-02 -0.995 0.995 9.968687e-02 -237.8392 1414.2383)" class="st1" cx="662.6" cy="838.5" rx="30.1" ry="30.1"/>
</g>
<g>
	<path class="st0" d="M1224.8,967.4c-19.5,19.5-51.2,19.5-70.7,0s-19.5-51.2,0-70.7s51.2-19.5,70.7,0
		C1244.3,916.1,1244.3,947.9,1224.8,967.4z M1161.1,903.7c-15.6,15.6-15.6,41,0,56.6s41,15.6,56.6,0s15.6-41,0-56.6
		C1202.1,888.1,1176.7,888.1,1161.1,903.7z"/>
	<path class="st0" d="M1203.6,946.1c-6.6,6.6-16.6,7.6-24.3,3.1l-18.1,18.1c-2,2-5.1,2-7.1,0s-2-5.1,0-7.1l18.1-18.1
		c-4.5-7.7-3.5-17.7,3.1-24.3s16.6-7.6,24.3-3.1l18.1-18.1c2-2,5.1-2,7.1,0s2,5.1,0,7.1l-18.1,18.1
		C1211.2,929.5,1210.1,939.6,1203.6,946.1z M1182.3,924.9c-3.9,3.9-3.9,10.2,0,14.1c3.9,3.9,10.2,3.9,14.1,0s3.9-10.2,0-14.1
		C1192.6,921,1186.2,921,1182.3,924.9z"/>
</g>
<g>
	<path class="st0" d="M1224.8,967.4c-19.5,19.5-51.2,19.5-70.7,0s-19.5-51.2,0-70.7s51.2-19.5,70.7,0
		C1244.3,916.1,1244.3,947.9,1224.8,967.4z M1161.1,903.7c-15.6,15.6-15.6,41,0,56.6s41,15.6,56.6,0s15.6-41,0-56.6
		C1202.1,888.1,1176.7,888.1,1161.1,903.7z"/>
	<path class="st0" d="M1203.6,946.1c-6.6,6.6-16.6,7.6-24.3,3.1l-18.1,18.1c-2,2-5.1,2-7.1,0s-2-5.1,0-7.1l18.1-18.1
		c-4.5-7.7-3.5-17.7,3.1-24.3s16.6-7.6,24.3-3.1l18.1-18.1c2-2,5.1-2,7.1,0s2,5.1,0,7.1l-18.1,18.1
		C1211.2,929.5,1210.1,939.6,1203.6,946.1z M1182.3,924.9c-3.9,3.9-3.9,10.2,0,14.1c3.9,3.9,10.2,3.9,14.1,0s3.9-10.2,0-14.1
		C1192.6,921,1186.2,921,1182.3,924.9z"/>
</g>
<g>
	<path class="st0" d="M1863.1,687.8l-35.9,35.9c12.9,19.5,10.8,46-6.4,63.2c-17.2,17.2-43.7,19.3-63.2,6.4l-35.9,35.9
		c39.5,32.3,97.8,30.1,134.7-6.8C1893.2,785.6,1895.4,727.2,1863.1,687.8z"/>
	<path class="st0" d="M1848.9,673.5c-39.5-32.3-97.8-30.1-134.7,6.8c-36.9,36.9-39.1,95.2-6.8,134.7l35.9-35.9
		c-12.9-19.5-10.8-46,6.4-63.2c17.2-17.2,43.7-19.3,63.2-6.4L1848.9,673.5z"/>
	<circle class="st1" cx="1785.3" cy="751.3" r="30.1"/>
</g>
<g>
	<path class="st0" d="M1863.1,687.8l-35.9,35.9c12.9,19.5,10.8,46-6.4,63.2c-17.2,17.2-43.7,19.3-63.2,6.4l-35.9,35.9
		c39.5,32.3,97.8,30.1,134.7-6.8C1893.2,785.6,1895.4,727.2,1863.1,687.8z"/>
	<path class="st0" d="M1848.9,673.5c-39.5-32.3-97.8-30.1-134.7,6.8c-36.9,36.9-39.1,95.2-6.8,134.7l35.9-35.9
		c-12.9-19.5-10.8-46,6.4-63.2c17.2-17.2,43.7-19.3,63.2-6.4L1848.9,673.5z"/>
	<circle class="st1" cx="1785.3" cy="751.3" r="30.1"/>
</g>
<g>
	
		<linearGradient id="SVGID_1_" gradientUnits="userSpaceOnUse" x1="1297.2882" y1="2656.5571" x2="1497.2902" y2="2656.5571" gradientTransform="matrix(0.7071 -0.7071 -0.7071 -0.7071 1167.3344 3605.0623)">
		<stop  offset="0" style="stop-color:#FFFFFF"/>
		<stop  offset="1" style="stop-color:#FFFFFF"/>
	</linearGradient>
	<circle class="st2" cx="276.9" cy="738.6" r="100"/>
	
		<linearGradient id="SVGID_00000160152735425237479280000002733580193146480546_" gradientUnits="userSpaceOnUse" x1="1397.2185" y1="2656.3804" x2="2203.54" y2="2656.3804" gradientTransform="matrix(0.7071 -0.7071 -0.7071 -0.7071 1167.3344 3605.0623)">
		<stop  offset="0" style="stop-color:#FFFFFF"/>
		<stop  offset="0.5224" style="stop-color:#FFFFFF"/>
		<stop  offset="0.9072" style="stop-color:#FFFFFF;stop-opacity:0.1068"/>
		<stop  offset="1" style="stop-color:#FFFFFF;stop-opacity:0"/>
	</linearGradient>
	<polygon style="fill:url(#SVGID_00000160152735425237479280000002733580193146480546_);" points="917.7,239.3 347.6,809.4 
		206.4,668.1 776.5,98 	"/>
</g>
<g>
	
		<linearGradient id="SVGID_00000170261471048196438620000003385248822042137496_" gradientUnits="userSpaceOnUse" x1="1297.2882" y1="2656.5571" x2="1497.2902" y2="2656.5571" gradientTransform="matrix(0.7071 -0.7071 -0.7071 -0.7071 1167.3344 3605.0623)">
		<stop  offset="0" style="stop-color:#FFFFFF"/>
		<stop  offset="1" style="stop-color:#FFFFFF"/>
	</linearGradient>
	<circle style="fill:url(#SVGID_00000170261471048196438620000003385248822042137496_);" cx="276.9" cy="738.6" r="100"/>
	
		<linearGradient id="SVGID_00000031187529414525039850000005646992137522321071_" gradientUnits="userSpaceOnUse" x1="1397.2185" y1="2656.3804" x2="2203.54" y2="2656.3804" gradientTransform="matrix(0.7071 -0.7071 -0.7071 -0.7071 1167.3344 3605.0623)">
		<stop  offset="0" style="stop-color:#FFFFFF"/>
		<stop  offset="0.5224" style="stop-color:#FFFFFF"/>
		<stop  offset="0.9072" style="stop-color:#FFFFFF;stop-opacity:0.1068"/>
		<stop  offset="1" style="stop-color:#FFFFFF;stop-opacity:0"/>
	</linearGradient>
	<polygon style="fill:url(#SVGID_00000031187529414525039850000005646992137522321071_);" points="917.7,239.3 347.6,809.4 
		206.4,668.1 776.5,98 	"/>
</g>
<g>
	
		<linearGradient id="SVGID_00000030456671219993861460000007796247726312065196_" gradientUnits="userSpaceOnUse" x1="2275.6013" y1="2302.9697" x2="2475.6558" y2="2302.9697" gradientTransform="matrix(0.5316 -0.5316 -0.5316 -0.5316 1459.2805 3083.3303)">
		<stop  offset="0" style="stop-color:#FFFFFF"/>
		<stop  offset="1" style="stop-color:#FFFFFF"/>
	</linearGradient>
	<circle style="fill:url(#SVGID_00000030456671219993861460000007796247726312065196_);" cx="1497.9" cy="596.2" r="75.2"/>
	
		<linearGradient id="SVGID_00000172426750126393498620000004235779870271666324_" gradientUnits="userSpaceOnUse" x1="2452.6138" y1="2302.876" x2="3258.9263" y2="2302.876" gradientTransform="matrix(0.4293 -0.4293 -0.5316 -0.5316 1668.6077 2874.0034)">
		<stop  offset="0" style="stop-color:#FFFFFF"/>
		<stop  offset="0.5782" style="stop-color:#FFFFFF"/>
		<stop  offset="0.9072" style="stop-color:#FFFFFF;stop-opacity:0.1068"/>
		<stop  offset="1" style="stop-color:#FFFFFF;stop-opacity:0"/>
	</linearGradient>
	<polygon style="fill:url(#SVGID_00000172426750126393498620000004235779870271666324_);" points="1896.5,303.9 1550.4,650 
		1444.2,543.8 1790.4,197.7 	"/>
</g>
<g>
	
		<linearGradient id="SVGID_00000000220471343273493870000012147151566663138448_" gradientUnits="userSpaceOnUse" x1="2275.6013" y1="2302.9697" x2="2475.6558" y2="2302.9697" gradientTransform="matrix(0.5316 -0.5316 -0.5316 -0.5316 1459.2805 3083.3303)">
		<stop  offset="0" style="stop-color:#FFFFFF"/>
		<stop  offset="1" style="stop-color:#FFFFFF"/>
	</linearGradient>
	<circle style="fill:url(#SVGID_00000000220471343273493870000012147151566663138448_);" cx="1497.9" cy="596.2" r="75.2"/>
	
		<linearGradient id="SVGID_00000089542596879200176020000006001243389555593110_" gradientUnits="userSpaceOnUse" x1="2452.6138" y1="2302.876" x2="3258.9263" y2="2302.876" gradientTransform="matrix(0.4293 -0.4293 -0.5316 -0.5316 1668.6077 2874.0034)">
		<stop  offset="0" style="stop-color:#FFFFFF"/>
		<stop  offset="0.5782" style="stop-color:#FFFFFF"/>
		<stop  offset="0.9072" style="stop-color:#FFFFFF;stop-opacity:0.1068"/>
		<stop  offset="1" style="stop-color:#FFFFFF;stop-opacity:0"/>
	</linearGradient>
	<polygon style="fill:url(#SVGID_00000089542596879200176020000006001243389555593110_);" points="1896.5,303.9 1550.4,650 
		1444.2,543.8 1790.4,197.7 	"/>
</g>
<g>
	
		<linearGradient id="SVGID_00000126306259927579696140000002969572325079221915_" gradientUnits="userSpaceOnUse" x1="334.2488" y1="6089.4248" x2="534.1354" y2="6089.4248" gradientTransform="matrix(0.3517 -0.3517 -0.3364 -0.3364 1967.9331 2629.4253)">
		<stop  offset="0" style="stop-color:#FFFFFF"/>
		<stop  offset="1" style="stop-color:#FFFFFF"/>
	</linearGradient>
	<path style="fill:url(#SVGID_00000126306259927579696140000002969572325079221915_);" d="M107.3,393.1
		c18.6,18.6,17.9,49.4-1.5,68.8S55.6,482,37,463.4s-17.9-49.4,1.5-68.8S88.8,374.5,107.3,393.1z"/>
	
		<linearGradient id="SVGID_00000008833694030536662600000012114477242678091697_" gradientUnits="userSpaceOnUse" x1="-783.7571" y1="6089.2759" x2="22.1672" y2="6089.2759" gradientTransform="matrix(0.1958 -0.1958 -0.3364 -0.3364 2273.6982 2323.6604)">
		<stop  offset="0" style="stop-color:#FFFFFF"/>
		<stop  offset="0.5112" style="stop-color:#FFFFFF"/>
		<stop  offset="0.9072" style="stop-color:#FFFFFF;stop-opacity:0.1068"/>
		<stop  offset="1" style="stop-color:#FFFFFF;stop-opacity:0"/>
	</linearGradient>
	<polygon style="fill:url(#SVGID_00000008833694030536662600000012114477242678091697_);" points="263.2,304.5 105.4,462.3 
		38.2,395.1 196,237.3 	"/>
</g>
<g>
	
		<linearGradient id="SVGID_00000140012692207057625370000017070474755128351921_" gradientUnits="userSpaceOnUse" x1="334.2488" y1="6089.4248" x2="534.1354" y2="6089.4248" gradientTransform="matrix(0.3517 -0.3517 -0.3364 -0.3364 1967.9331 2629.4253)">
		<stop  offset="0" style="stop-color:#FFFFFF"/>
		<stop  offset="1" style="stop-color:#FFFFFF"/>
	</linearGradient>
	<path style="fill:url(#SVGID_00000140012692207057625370000017070474755128351921_);" d="M107.3,393.1
		c18.6,18.6,17.9,49.4-1.5,68.8S55.6,482,37,463.4s-17.9-49.4,1.5-68.8S88.8,374.5,107.3,393.1z"/>
	
		<linearGradient id="SVGID_00000020385999665537440260000004755642436185824905_" gradientUnits="userSpaceOnUse" x1="-783.7571" y1="6089.2759" x2="22.1672" y2="6089.2759" gradientTransform="matrix(0.1958 -0.1958 -0.3364 -0.3364 2273.6982 2323.6604)">
		<stop  offset="0" style="stop-color:#FFFFFF"/>
		<stop  offset="0.5112" style="stop-color:#FFFFFF"/>
		<stop  offset="0.9072" style="stop-color:#FFFFFF;stop-opacity:0.1068"/>
		<stop  offset="1" style="stop-color:#FFFFFF;stop-opacity:0"/>
	</linearGradient>
	<polygon style="fill:url(#SVGID_00000020385999665537440260000004755642436185824905_);" points="263.2,304.5 105.4,462.3 
		38.2,395.1 196,237.3 	"/>
</g>
<g>
	
		<linearGradient id="SVGID_00000000183917445498943860000009677384969991811217_" gradientUnits="userSpaceOnUse" x1="1237.6001" y1="4602.9248" x2="1437.4867" y2="4602.9248" gradientTransform="matrix(0.3517 -0.3517 -0.3364 -0.3364 1967.9331 2629.4253)">
		<stop  offset="0" style="stop-color:#FFFFFF"/>
		<stop  offset="1" style="stop-color:#FFFFFF"/>
	</linearGradient>
	<path style="fill:url(#SVGID_00000000183917445498943860000009677384969991811217_);" d="M925.1,575.4
		c18.6,18.6,17.9,49.4-1.5,68.8c-19.4,19.4-50.2,20.1-68.8,1.5c-18.6-18.6-17.9-49.4,1.5-68.8C875.7,557.5,906.6,556.8,925.1,575.4z
		"/>
	
		<linearGradient id="SVGID_00000044145527335738567450000017042281257701491087_" gradientUnits="userSpaceOnUse" x1="838.8611" y1="4602.7759" x2="1644.7854" y2="4602.7759" gradientTransform="matrix(0.1958 -0.1958 -0.3364 -0.3364 2273.6982 2323.6604)">
		<stop  offset="0" style="stop-color:#FFFFFF"/>
		<stop  offset="0.5112" style="stop-color:#FFFFFF"/>
		<stop  offset="0.9072" style="stop-color:#FFFFFF;stop-opacity:0.1068"/>
		<stop  offset="1" style="stop-color:#FFFFFF;stop-opacity:0"/>
	</linearGradient>
	<polygon style="fill:url(#SVGID_00000044145527335738567450000017042281257701491087_);" points="1081,486.8 923.2,644.6 
		856,577.4 1013.8,419.6 	"/>
</g>
</svg>
