<?xml version="1.0" encoding="utf-8"?>
<!-- Generator: Adobe Illustrator 27.9.0, SVG Export Plug-In . SVG Version: 6.00 Build 0)  -->
<svg version="1.1" id="Layer_1" xmlns="http://www.w3.org/2000/svg" xmlns:xlink="http://www.w3.org/1999/xlink" x="0px" y="0px"
	 viewBox="0 0 1920 1080" style="enable-background:new 0 0 1920 1080;" xml:space="preserve">
<style type="text/css">
	.st0{fill:#FFFFFF;}
	.st1{fill-rule:evenodd;clip-rule:evenodd;fill:#FFFFFF;}
	.st2{fill:url(#SVGID_1_);}
	.st3{fill:url(#SVGID_00000140708336437399119900000009316866051513302926_);}
	.st4{fill:url(#SVGID_00000106868405897907410080000015153209259607768485_);}
	.st5{fill:url(#SVGID_00000129199864472621819090000005685750233002180485_);}
	.st6{fill:url(#SVGID_00000054979400375923784860000011544412576072253588_);}
	.st7{fill:url(#SVGID_00000071524252417867790670000011476916549643069077_);}
	.st8{fill:url(#SVGID_00000139255780065936775240000008011086172833472659_);}
	.st9{fill:url(#SVGID_00000022525603811032040170000008159671276610148537_);}
	.st10{fill:url(#SVGID_00000102532051641669330270000010497684308339557052_);}
	.st11{fill:url(#SVGID_00000064344769393533382710000006109356132710752159_);}
</style>
<g>
	<path class="st0" d="M1345.1,331.3c-29.2,29.2-76.8,29.2-106.1,0c-29.2-29.2-29.2-76.8,0-106.1c29.2-29.2,76.8-29.2,106.1,0
		S1374.4,302.1,1345.1,331.3z M1249.7,235.9c-23.4,23.4-23.4,61.5,0,84.9s61.5,23.4,84.9,0s23.4-61.5,0-84.9
		C1311.1,212.5,1273.1,212.5,1249.7,235.9z"/>
	<path class="st0" d="M1313.3,299.5c-9.9,9.9-25,11.4-36.5,4.6l-27.2,27.2c-2.9,2.9-7.7,2.9-10.6,0s-2.9-7.7,0-10.6l27.2-27.2
		c-6.8-11.5-5.2-26.6,4.6-36.5c9.9-9.9,25-11.4,36.4-4.6l27.2-27.2c2.9-2.9,7.7-2.9,10.6,0s2.9,7.7,0,10.6l-27,27.2
		C1324.7,274.5,1323.2,289.6,1313.3,299.5z M1281.5,267.7c-5.8,5.8-5.8,15.4,0,21.2c5.8,5.8,15.4,5.9,21.2,0
		c5.8-5.8,5.8-15.4,0-21.2C1296.9,261.8,1287.4,261.8,1281.5,267.7z"/>
</g>
<g>
	<path class="st0" d="M218.8,877.6l-35.9,35.9c12.9,19.5,10.8,46-6.4,63.2s-43.7,19.3-63.2,6.4L77.4,1019
		c39.5,32.3,97.8,30.1,134.7-6.8C248.9,975.4,251.1,917.1,218.8,877.6z"/>
	<path class="st0" d="M204.6,863.4c-39.5-32.3-97.8-30.1-134.7,6.8c-36.9,36.9-39.1,95.2-6.8,134.7L99,969
		c-12.9-19.5-10.8-46,6.4-63.2s43.7-19.3,63.2-6.4L204.6,863.4z"/>
	
		<ellipse transform="matrix(3.327792e-02 -0.9994 0.9994 3.327792e-02 -804.3709 1050.8008)" class="st1" cx="141" cy="941.2" rx="30.1" ry="30.1"/>
</g>
<g>
	<path class="st0" d="M1252.5,886.1c-19.5,19.5-51.2,19.5-70.7,0s-19.5-51.2,0-70.7s51.2-19.5,70.7,0
		C1272,834.8,1272,866.6,1252.5,886.1z M1188.8,822.4c-15.6,15.6-15.6,41,0,56.6s41,15.6,56.6,0s15.6-41,0-56.6
		C1229.8,806.8,1204.4,806.8,1188.8,822.4z"/>
	<path class="st0" d="M1231.3,864.8c-6.6,6.6-16.6,7.6-24.3,3.1l-18.1,18.1c-2,2-5.1,2-7.1,0s-2-5.1,0-7.1l18.1-18.1
		c-4.5-7.7-3.5-17.7,3.1-24.3s16.6-7.6,24.3-3.1l18.1-18.1c2-2,5.1-2,7.1,0s2,5.1,0,7.1l-18.1,18.1
		C1238.9,848.2,1237.8,858.3,1231.3,864.8z M1210,843.6c-3.9,3.9-3.9,10.2,0,14.1c3.9,3.9,10.2,3.9,14.1,0s3.9-10.2,0-14.1
		C1220.3,839.7,1213.9,839.7,1210,843.6z"/>
</g>
<g>
	<path class="st0" d="M1890.8,606.5l-35.9,35.9c12.9,19.5,10.8,46-6.4,63.2c-17.2,17.2-43.7,19.3-63.2,6.4l-35.9,35.9
		c39.5,32.3,97.8,30.1,134.7-6.8C1920.9,704.3,1923.1,645.9,1890.8,606.5z"/>
	<path class="st0" d="M1876.6,592.2c-39.5-32.3-97.8-30.1-134.7,6.8c-36.9,36.9-39.1,95.2-6.8,134.7l35.9-35.9
		c-12.9-19.5-10.8-46,6.4-63.2c17.2-17.2,43.7-19.3,63.2-6.4L1876.6,592.2z"/>
	<circle class="st1" cx="1813" cy="670" r="30.1"/>
</g>
<g>
	
		<linearGradient id="SVGID_1_" gradientUnits="userSpaceOnUse" x1="281.2548" y1="905.4564" x2="481.2567" y2="905.4564" gradientTransform="matrix(0.7071 -0.7071 -0.7071 -0.7071 675.2623 1567.1342)">
		<stop  offset="0" style="stop-color:#FFFFFF"/>
		<stop  offset="1" style="stop-color:#FFFFFF"/>
	</linearGradient>
	<circle class="st2" cx="304.6" cy="657.3" r="100"/>
	
		<linearGradient id="SVGID_00000103980353776786111920000007084813537556691125_" gradientUnits="userSpaceOnUse" x1="381.1851" y1="905.2797" x2="1187.5067" y2="905.2797" gradientTransform="matrix(0.7071 -0.7071 -0.7071 -0.7071 675.2623 1567.1342)">
		<stop  offset="0" style="stop-color:#FFFFFF"/>
		<stop  offset="0.5224" style="stop-color:#FFFFFF"/>
		<stop  offset="0.9072" style="stop-color:#FFFFFF;stop-opacity:0.1068"/>
		<stop  offset="1" style="stop-color:#FFFFFF;stop-opacity:0"/>
	</linearGradient>
	<polygon style="fill:url(#SVGID_00000103980353776786111920000007084813537556691125_);" points="945.4,158 375.3,728.1 
		234.1,586.8 804.2,16.7 	"/>
</g>
<g>
	
		<linearGradient id="SVGID_00000023976267969803668800000011710005160933551759_" gradientUnits="userSpaceOnUse" x1="1478.767" y1="-26.2313" x2="1678.8212" y2="-26.2313" gradientTransform="matrix(0.5316 -0.5316 -0.5316 -0.5316 672.3685 1340.2424)">
		<stop  offset="0" style="stop-color:#FFFFFF"/>
		<stop  offset="1" style="stop-color:#FFFFFF"/>
	</linearGradient>
	<circle style="fill:url(#SVGID_00000023976267969803668800000011710005160933551759_);" cx="1525.6" cy="514.9" r="75.2"/>
	
		<linearGradient id="SVGID_00000003073649927605522910000016099364796594482599_" gradientUnits="userSpaceOnUse" x1="1866.233" y1="-26.3251" x2="2672.5457" y2="-26.3251" gradientTransform="matrix(0.4293 -0.4293 -0.5316 -0.5316 709.8317 1302.7794)">
		<stop  offset="0" style="stop-color:#FFFFFF"/>
		<stop  offset="0.5782" style="stop-color:#FFFFFF"/>
		<stop  offset="0.9072" style="stop-color:#FFFFFF;stop-opacity:0.1068"/>
		<stop  offset="1" style="stop-color:#FFFFFF;stop-opacity:0"/>
	</linearGradient>
	<polygon style="fill:url(#SVGID_00000003073649927605522910000016099364796594482599_);" points="1924.2,222.6 1578.1,568.7 
		1471.9,462.5 1818.1,116.4 	"/>
</g>
<g>
	
		<linearGradient id="SVGID_00000168832163553280686420000005915240890251500936_" gradientUnits="userSpaceOnUse" x1="276.077" y1="259.4158" x2="476.1313" y2="259.4158" gradientTransform="matrix(0.5316 -0.5316 -0.5316 -0.5316 672.3685 1340.2424)">
		<stop  offset="0" style="stop-color:#FFFFFF"/>
		<stop  offset="1" style="stop-color:#FFFFFF"/>
	</linearGradient>
	<circle style="fill:url(#SVGID_00000168832163553280686420000005915240890251500936_);" cx="734.4" cy="1002.4" r="75.2"/>
	
		<linearGradient id="SVGID_00000165948660742940721480000012385601889515939969_" gradientUnits="userSpaceOnUse" x1="376.9483" y1="259.275" x2="1183.3772" y2="259.275" gradientTransform="matrix(0.4293 -0.4293 -0.5316 -0.5316 709.8317 1302.7794)">
		<stop  offset="0" style="stop-color:#FFFFFF"/>
		<stop  offset="0.4609" style="stop-color:#FFFFFF"/>
		<stop  offset="0.9072" style="stop-color:#FFFFFF;stop-opacity:0.1068"/>
		<stop  offset="1" style="stop-color:#FFFFFF;stop-opacity:0"/>
	</linearGradient>
	<polygon style="fill:url(#SVGID_00000165948660742940721480000012385601889515939969_);" points="1133.1,710 786.9,1056.2 
		680.8,950 1026.9,603.9 	"/>
</g>
<g>
	
		<linearGradient id="SVGID_00000029008706223230207780000006550352559509135520_" gradientUnits="userSpaceOnUse" x1="901.8766" y1="-432.8799" x2="1101.7632" y2="-432.8799" gradientTransform="matrix(0.3517 -0.3517 -0.3364 -0.3364 878.7892 1188.5692)">
		<stop  offset="0" style="stop-color:#FFFFFF"/>
		<stop  offset="1" style="stop-color:#FFFFFF"/>
	</linearGradient>
	<path style="fill:url(#SVGID_00000029008706223230207780000006550352559509135520_);" d="M1411.9,946.7
		c18.6,18.6,17.9,49.4-1.5,68.8c-19.4,19.4-50.2,20.1-68.8,1.5c-18.6-18.6-17.9-49.4,1.5-68.8
		C1362.6,928.8,1393.4,928.1,1411.9,946.7z"/>
	
		<linearGradient id="SVGID_00000005233696961968153510000010478037234232925094_" gradientUnits="userSpaceOnUse" x1="1151.7764" y1="-433.1772" x2="1958.1145" y2="-433.1772" gradientTransform="matrix(0.284 -0.284 -0.3364 -0.3364 903.5747 1163.7837)">
		<stop  offset="0" style="stop-color:#FFFFFF"/>
		<stop  offset="0.3659" style="stop-color:#FFFFFF"/>
		<stop  offset="0.9072" style="stop-color:#FFFFFF;stop-opacity:0.1068"/>
		<stop  offset="1" style="stop-color:#FFFFFF;stop-opacity:0"/>
	</linearGradient>
	<polygon style="fill:url(#SVGID_00000005233696961968153510000010478037234232925094_);" points="1639,787 1410,1016 1342.8,948.8 
		1571.8,719.8 	"/>
</g>
<g>
	
		<linearGradient id="SVGID_00000047024239381221345430000014569452712802545298_" gradientUnits="userSpaceOnUse" x1="377.5661" y1="2358.7373" x2="577.4528" y2="2358.7373" gradientTransform="matrix(0.3517 -0.3517 -0.3364 -0.3364 878.7892 1188.5692)">
		<stop  offset="0" style="stop-color:#FFFFFF"/>
		<stop  offset="1" style="stop-color:#FFFFFF"/>
	</linearGradient>
	<path style="fill:url(#SVGID_00000047024239381221345430000014569452712802545298_);" d="M288.4,192c18.6,18.6,17.9,49.4-1.5,68.8
		s-50.2,20.1-68.8,1.5s-17.9-49.4,1.5-68.8S269.9,173.4,288.4,192z"/>
	
		<linearGradient id="SVGID_00000162311726449090477910000003508900760919557286_" gradientUnits="userSpaceOnUse" x1="631.7012" y1="2358.5886" x2="1437.6256" y2="2358.5886" gradientTransform="matrix(0.1958 -0.1958 -0.3364 -0.3364 922.6421 1144.7163)">
		<stop  offset="0" style="stop-color:#FFFFFF"/>
		<stop  offset="0.5112" style="stop-color:#FFFFFF"/>
		<stop  offset="0.9072" style="stop-color:#FFFFFF;stop-opacity:0.1068"/>
		<stop  offset="1" style="stop-color:#FFFFFF;stop-opacity:0"/>
	</linearGradient>
	<polygon style="fill:url(#SVGID_00000162311726449090477910000003508900760919557286_);" points="444.3,103.4 286.5,261.2 
		219.3,194 377.1,36.2 	"/>
</g>
<g>
	<path class="st0" d="M162.6,388.6c-19.5,19.5-51.2,19.5-70.7,0s-19.5-51.2,0-70.7c19.5-19.5,51.2-19.5,70.7,0
		S182.1,369.1,162.6,388.6z M99,325c-15.6,15.6-15.6,41,0,56.6s41,15.6,56.6,0s15.6-41,0-56.6C139.9,309.4,114.6,309.4,99,325z"/>
	<path class="st0" d="M141.4,367.4c-6.6,6.6-16.6,7.6-24.3,3.1L99,388.6c-2,2-5.1,2-7.1,0s-2-5.1,0-7.1l18.1-18.1
		c-4.5-7.7-3.5-17.7,3.1-24.3c6.6-6.6,16.6-7.6,24.3-3.1l18.1-18.1c2-2,5.1-2,7.1,0s2,5.1,0,7.1l-18.1,18.1
		C149,350.7,148,360.8,141.4,367.4z M120.2,346.2c-3.9,3.9-3.9,10.2,0,14.1s10.2,3.9,14.1,0c3.9-3.9,3.9-10.2,0-14.1
		C130.4,342.3,124.1,342.3,120.2,346.2z"/>
</g>
<g>
	<path class="st0" d="M822.3,604.9c-19.5,19.5-51.2,19.5-70.7,0s-19.5-51.2,0-70.7s51.2-19.5,70.7,0S841.8,585.4,822.3,604.9z
		 M758.6,541.3c-15.6,15.6-15.6,41,0,56.6s41,15.6,56.6,0s15.6-41,0-56.6S774.2,525.7,758.6,541.3z"/>
	<path class="st0" d="M801.1,583.7c-6.6,6.6-16.6,7.6-24.3,3.1l-18.1,18.1c-2,2-5.1,2-7.1,0s-2-5.1,0-7.1l18.1-18.1
		c-4.5-7.7-3.5-17.7,3.1-24.3s16.6-7.6,24.3-3.1l18.1-18.1c2-2,5.1-2,7.1,0s2,5.1,0,7.1l-18.1,18.1
		C808.7,567.1,807.6,577.1,801.1,583.7z M779.8,562.5c-3.9,3.9-3.9,10.2,0,14.1c3.9,3.9,10.2,3.9,14.1,0c3.9-3.9,3.9-10.2,0-14.1
		C790.1,558.6,783.7,558.6,779.8,562.5z"/>
</g>
</svg>
